<?xml version="1.0" encoding="UTF-8" standalone="no"?>
<!DOCTYPE svg PUBLIC "-//W3C//DTD SVG 1.1//EN"
 "http://www.w3.org/Graphics/SVG/1.1/DTD/svg11.dtd">
<!-- Generated by graphviz version 7.1.0 (0)
 -->
<!-- Pages: 1 -->
<svg width="702pt" height="184pt"
 viewBox="0.00 0.00 702.00 184.00" xmlns="http://www.w3.org/2000/svg" xmlns:xlink="http://www.w3.org/1999/xlink">
<g id="graph0" class="graph" transform="scale(1 1) rotate(0) translate(36 148)">
<polygon fill="#111111" stroke="none" points="-36,36 -36,-148 666,-148 666,36 -36,36"/>
<!-- agregore -->
<g id="node1" class="node">
<title>agregore</title>
<path fill="#6e2de5" stroke="#2de56e" d="M375,-112C375,-112 255,-112 255,-112 249,-112 243,-106 243,-100 243,-100 243,-86 243,-86 243,-80 249,-74 255,-74 255,-74 375,-74 375,-74 381,-74 387,-80 387,-86 387,-86 387,-100 387,-100 387,-106 381,-112 375,-112"/>
<text text-anchor="middle" x="315" y="-96.8" font-family="System-UI" font-size="14.00" fill="#f2f2f2">Agregore</text>
<text text-anchor="middle" x="315" y="-81.8" font-family="System-UI" font-size="14.00" fill="#f2f2f2">Browser</text>
</g>
<!-- mesh -->
<g id="node2" class="node">
<title>mesh</title>
<path fill="#6e2de5" stroke="black" d="M132,-38C132,-38 12,-38 12,-38 6,-38 0,-32 0,-26 0,-26 0,-12 0,-12 0,-6 6,0 12,0 12,0 132,0 132,0 138,0 144,-6 144,-12 144,-12 144,-26 144,-26 144,-32 138,-38 132,-38"/>
<text text-anchor="middle" x="72" y="-22.8" font-family="System-UI" font-size="14.00" fill="#f2f2f2">Community</text>
<text text-anchor="middle" x="72" y="-7.8" font-family="System-UI" font-size="14.00" fill="#f2f2f2">Mesh Networks</text>
</g>
<!-- agregore&#45;&gt;mesh -->
<g id="edge6" class="edge">
<title>agregore&#45;&gt;mesh</title>
<path fill="none" stroke="#2de56e" d="M252.74,-73.55C219.87,-63.81 179.35,-51.81 145.02,-41.63"/>
<polygon fill="#2de56e" stroke="#2de56e" points="146.13,-38.32 135.55,-38.83 144.15,-45.03 146.13,-38.32"/>
</g>
<!-- p2p -->
<g id="node3" class="node">
<title>p2p</title>
<path fill="#6e2de5" stroke="black" d="M294,-38C294,-38 174,-38 174,-38 168,-38 162,-32 162,-26 162,-26 162,-12 162,-12 162,-6 168,0 174,0 174,0 294,0 294,0 300,0 306,-6 306,-12 306,-12 306,-26 306,-26 306,-32 300,-38 294,-38"/>
<text text-anchor="middle" x="234" y="-22.8" font-family="System-UI" font-size="14.00" fill="#f2f2f2">Peer to Peer</text>
<text text-anchor="middle" x="234" y="-7.8" font-family="System-UI" font-size="14.00" fill="#f2f2f2">Protocols</text>
</g>
<!-- agregore&#45;&gt;p2p -->
<g id="edge2" class="edge">
<title>agregore&#45;&gt;p2p</title>
<path fill="none" stroke="#2de56e" d="M288.61,-73.83C278.37,-65.45 266.81,-55.35 256.93,-46.17"/>
<polygon fill="#2de56e" stroke="#2de56e" points="259.5,-43.8 249.84,-39.45 254.69,-48.87 259.5,-43.8"/>
</g>
<!-- archive -->
<g id="node4" class="node">
<title>archive</title>
<path fill="#6e2de5" stroke="black" d="M456,-38C456,-38 336,-38 336,-38 330,-38 324,-32 324,-26 324,-26 324,-12 324,-12 324,-6 330,0 336,0 336,0 456,0 456,0 462,0 468,-6 468,-12 468,-12 468,-26 468,-26 468,-32 462,-38 456,-38"/>
<text text-anchor="middle" x="396" y="-22.8" font-family="System-UI" font-size="14.00" fill="#f2f2f2">Web</text>
<text text-anchor="middle" x="396" y="-7.8" font-family="System-UI" font-size="14.00" fill="#f2f2f2">Archives</text>
</g>
<!-- agregore&#45;&gt;archive -->
<g id="edge5" class="edge">
<title>agregore&#45;&gt;archive</title>
<path fill="none" stroke="#2de56e" d="M329.49,-73.83C338.27,-65.28 349.72,-54.94 360.68,-45.62"/>
<polygon fill="#2de56e" stroke="#2de56e" points="362.72,-48.48 368.15,-39.38 358.23,-43.11 362.72,-48.48"/>
</g>
<!-- apps -->
<g id="node5" class="node">
<title>apps</title>
<path fill="#6e2de5" stroke="black" d="M618,-38C618,-38 498,-38 498,-38 492,-38 486,-32 486,-26 486,-26 486,-12 486,-12 486,-6 492,0 498,0 498,0 618,0 618,0 624,0 630,-6 630,-12 630,-12 630,-26 630,-26 630,-32 624,-38 618,-38"/>
<text text-anchor="middle" x="558" y="-22.8" font-family="System-UI" font-size="14.00" fill="#f2f2f2">Local&#45;First</text>
<text text-anchor="middle" x="558" y="-7.8" font-family="System-UI" font-size="14.00" fill="#f2f2f2">Web Apps</text>
</g>
<!-- agregore&#45;&gt;apps -->
<g id="edge3" class="edge">
<title>agregore&#45;&gt;apps</title>
<path fill="none" stroke="#2de56e" d="M377.26,-73.55C410.13,-63.81 450.65,-51.81 484.98,-41.63"/>
<polygon fill="#2de56e" stroke="#2de56e" points="485.85,-45.03 494.45,-38.83 483.87,-38.32 485.85,-45.03"/>
</g>
<!-- p2p&#45;&gt;agregore -->
<g id="edge1" class="edge">
<title>p2p&#45;&gt;agregore</title>
<path fill="none" stroke="#2de56e" d="M260.69,-38.41C270.96,-46.82 282.51,-56.93 292.36,-66.09"/>
<polygon fill="#2de56e" stroke="#2de56e" points="289.75,-68.44 299.42,-72.79 294.57,-63.37 289.75,-68.44"/>
</g>
<!-- archive&#45;&gt;agregore -->
<g id="edge4" class="edge">
<title>archive&#45;&gt;agregore</title>
<path fill="none" stroke="#2de56e" d="M381.26,-38.41C372.43,-46.99 360.96,-57.34 350,-66.65"/>
<polygon fill="#2de56e" stroke="#2de56e" points="347.99,-63.77 342.55,-72.86 352.47,-69.14 347.99,-63.77"/>
</g>
</g>
</svg>
