<?xml version="1.0" encoding="UTF-8" standalone="no"?>
<!DOCTYPE svg PUBLIC "-//W3C//DTD SVG 1.1//EN"
 "http://www.w3.org/Graphics/SVG/1.1/DTD/svg11.dtd">
<!-- Generated by graphviz version 7.1.0 (0)
 -->
<!-- Pages: 1 -->
<svg width="540pt" height="258pt"
 viewBox="0.00 0.00 540.00 258.00" xmlns="http://www.w3.org/2000/svg" xmlns:xlink="http://www.w3.org/1999/xlink">
<g id="graph0" class="graph" transform="scale(1 1) rotate(0) translate(36 222)">
<polygon fill="#111111" stroke="none" points="-36,36 -36,-222 504,-222 504,36 -36,36"/>
<!-- agregore -->
<g id="node1" class="node">
<title>agregore</title>
<path fill="#6e2de5" stroke="#2de56e" d="M294,-186C294,-186 174,-186 174,-186 168,-186 162,-180 162,-174 162,-174 162,-160 162,-160 162,-154 168,-148 174,-148 174,-148 294,-148 294,-148 300,-148 306,-154 306,-160 306,-160 306,-174 306,-174 306,-180 300,-186 294,-186"/>
<text text-anchor="middle" x="234" y="-170.8" font-family="System-UI" font-size="14.00" fill="#f2f2f2">Agregore</text>
<text text-anchor="middle" x="234" y="-155.8" font-family="System-UI" font-size="14.00" fill="#f2f2f2">Browser</text>
</g>
<!-- apps -->
<g id="node3" class="node">
<title>apps</title>
<path fill="#6e2de5" stroke="black" d="M294,-112C294,-112 174,-112 174,-112 168,-112 162,-106 162,-100 162,-100 162,-86 162,-86 162,-80 168,-74 174,-74 174,-74 294,-74 294,-74 300,-74 306,-80 306,-86 306,-86 306,-100 306,-100 306,-106 300,-112 294,-112"/>
<text text-anchor="middle" x="234" y="-96.8" font-family="System-UI" font-size="14.00" fill="#f2f2f2">Local&#45;First</text>
<text text-anchor="middle" x="234" y="-81.8" font-family="System-UI" font-size="14.00" fill="#f2f2f2">Web Apps</text>
</g>
<!-- agregore&#45;&gt;apps -->
<g id="edge2" class="edge">
<title>agregore&#45;&gt;apps</title>
<path fill="none" stroke="#2de56e" d="M234,-147.83C234,-140.55 234,-131.98 234,-123.83"/>
<polygon fill="#2de56e" stroke="#2de56e" points="237.5,-123.93 234,-113.93 230.5,-123.93 237.5,-123.93"/>
</g>
<!-- db -->
<g id="node2" class="node">
<title>db</title>
<path fill="#6e2de5" stroke="black" d="M132,-38C132,-38 12,-38 12,-38 6,-38 0,-32 0,-26 0,-26 0,-12 0,-12 0,-6 6,0 12,0 12,0 132,0 132,0 138,0 144,-6 144,-12 144,-12 144,-26 144,-26 144,-32 138,-38 132,-38"/>
<text text-anchor="middle" x="72" y="-22.8" font-family="System-UI" font-size="14.00" fill="#f2f2f2">Peer To Peer</text>
<text text-anchor="middle" x="72" y="-7.8" font-family="System-UI" font-size="14.00" fill="#f2f2f2">Databases</text>
</g>
<!-- apps&#45;&gt;db -->
<g id="edge1" class="edge">
<title>apps&#45;&gt;db</title>
<path fill="none" stroke="#2de56e" d="M192.7,-73.65C171.74,-64.33 146.07,-52.92 123.8,-43.02"/>
<polygon fill="#2de56e" stroke="#2de56e" points="125.45,-39.92 114.89,-39.06 122.6,-46.32 125.45,-39.92"/>
</g>
<!-- HTML/CSS/JS -->
<g id="node4" class="node">
<title>HTML/CSS/JS</title>
<path fill="#6e2de5" stroke="black" d="M294,-37C294,-37 174,-37 174,-37 168,-37 162,-31 162,-25 162,-25 162,-13 162,-13 162,-7 168,-1 174,-1 174,-1 294,-1 294,-1 300,-1 306,-7 306,-13 306,-13 306,-25 306,-25 306,-31 300,-37 294,-37"/>
<text text-anchor="middle" x="234" y="-15.3" font-family="System-UI" font-size="14.00" fill="#f2f2f2">HTML/CSS/JS</text>
</g>
<!-- apps&#45;&gt;HTML/CSS/JS -->
<g id="edge3" class="edge">
<title>apps&#45;&gt;HTML/CSS/JS</title>
<path fill="none" stroke="#2de56e" d="M234,-73.83C234,-66.24 234,-57.24 234,-48.79"/>
<polygon fill="#2de56e" stroke="#2de56e" points="237.5,-48.93 234,-38.93 230.5,-48.93 237.5,-48.93"/>
</g>
<!-- Mac, Linux\nWin, Android -->
<g id="node5" class="node">
<title>Mac, Linux\nWin, Android</title>
<path fill="#6e2de5" stroke="black" d="M456,-38C456,-38 336,-38 336,-38 330,-38 324,-32 324,-26 324,-26 324,-12 324,-12 324,-6 330,0 336,0 336,0 456,0 456,0 462,0 468,-6 468,-12 468,-12 468,-26 468,-26 468,-32 462,-38 456,-38"/>
<text text-anchor="middle" x="396" y="-22.8" font-family="System-UI" font-size="14.00" fill="#f2f2f2">Mac, Linux</text>
<text text-anchor="middle" x="396" y="-7.8" font-family="System-UI" font-size="14.00" fill="#f2f2f2">Win, Android</text>
</g>
<!-- apps&#45;&gt;Mac, Linux\nWin, Android -->
<g id="edge4" class="edge">
<title>apps&#45;&gt;Mac, Linux\nWin, Android</title>
<path fill="none" stroke="#2de56e" d="M275.3,-73.65C296.26,-64.33 321.93,-52.92 344.2,-43.02"/>
<polygon fill="#2de56e" stroke="#2de56e" points="345.4,-46.32 353.11,-39.06 342.55,-39.92 345.4,-46.32"/>
</g>
</g>
</svg>
