<?xml version="1.0" encoding="UTF-8" standalone="no"?>
<!DOCTYPE svg PUBLIC "-//W3C//DTD SVG 1.1//EN"
 "http://www.w3.org/Graphics/SVG/1.1/DTD/svg11.dtd">
<!-- Generated by graphviz version 7.1.0 (0)
 -->
<!-- Pages: 1 -->
<svg width="540pt" height="258pt"
 viewBox="0.00 0.00 540.00 258.00" xmlns="http://www.w3.org/2000/svg" xmlns:xlink="http://www.w3.org/1999/xlink">
<g id="graph0" class="graph" transform="scale(1 1) rotate(0) translate(36 222)">
<polygon fill="#111111" stroke="none" points="-36,36 -36,-222 504,-222 504,36 -36,36"/>
<!-- agregore -->
<g id="node1" class="node">
<title>agregore</title>
<path fill="#6e2de5" stroke="#2de56e" d="M294,-186C294,-186 174,-186 174,-186 168,-186 162,-180 162,-174 162,-174 162,-160 162,-160 162,-154 168,-148 174,-148 174,-148 294,-148 294,-148 300,-148 306,-154 306,-160 306,-160 306,-174 306,-174 306,-180 300,-186 294,-186"/>
<text text-anchor="middle" x="234" y="-170.8" font-family="System-UI" font-size="14.00" fill="#f2f2f2">Agregore</text>
<text text-anchor="middle" x="234" y="-155.8" font-family="System-UI" font-size="14.00" fill="#f2f2f2">Browser</text>
</g>
<!-- archive -->
<g id="node4" class="node">
<title>archive</title>
<path fill="#6e2de5" stroke="black" d="M294,-112C294,-112 174,-112 174,-112 168,-112 162,-106 162,-100 162,-100 162,-86 162,-86 162,-80 168,-74 174,-74 174,-74 294,-74 294,-74 300,-74 306,-80 306,-86 306,-86 306,-100 306,-100 306,-106 300,-112 294,-112"/>
<text text-anchor="middle" x="234" y="-96.8" font-family="System-UI" font-size="14.00" fill="#f2f2f2">Web</text>
<text text-anchor="middle" x="234" y="-81.8" font-family="System-UI" font-size="14.00" fill="#f2f2f2">Archives</text>
</g>
<!-- agregore&#45;&gt;archive -->
<g id="edge3" class="edge">
<title>agregore&#45;&gt;archive</title>
<path fill="none" stroke="#2de56e" d="M228.05,-147.83C227.34,-140.55 227.1,-131.98 227.34,-123.83"/>
<polygon fill="#2de56e" stroke="#2de56e" points="230.83,-124.12 227.93,-113.92 223.84,-123.7 230.83,-124.12"/>
</g>
<!-- mesh -->
<g id="node2" class="node">
<title>mesh</title>
<path fill="#6e2de5" stroke="black" d="M456,-186C456,-186 336,-186 336,-186 330,-186 324,-180 324,-174 324,-174 324,-160 324,-160 324,-154 330,-148 336,-148 336,-148 456,-148 456,-148 462,-148 468,-154 468,-160 468,-160 468,-174 468,-174 468,-180 462,-186 456,-186"/>
<text text-anchor="middle" x="396" y="-170.8" font-family="System-UI" font-size="14.00" fill="#f2f2f2">Community</text>
<text text-anchor="middle" x="396" y="-155.8" font-family="System-UI" font-size="14.00" fill="#f2f2f2">Mesh Networks</text>
</g>
<!-- mesh&#45;&gt;archive -->
<g id="edge5" class="edge">
<title>mesh&#45;&gt;archive</title>
<path fill="none" stroke="#2de56e" d="M354.7,-147.65C333.74,-138.33 308.07,-126.92 285.8,-117.02"/>
<polygon fill="#2de56e" stroke="#2de56e" points="287.45,-113.92 276.89,-113.06 284.6,-120.32 287.45,-113.92"/>
</g>
<!-- p2p -->
<g id="node3" class="node">
<title>p2p</title>
<path fill="#6e2de5" stroke="black" d="M132,-38C132,-38 12,-38 12,-38 6,-38 0,-32 0,-26 0,-26 0,-12 0,-12 0,-6 6,0 12,0 12,0 132,0 132,0 138,0 144,-6 144,-12 144,-12 144,-26 144,-26 144,-32 138,-38 132,-38"/>
<text text-anchor="middle" x="72" y="-22.8" font-family="System-UI" font-size="14.00" fill="#f2f2f2">Peer to Peer</text>
<text text-anchor="middle" x="72" y="-7.8" font-family="System-UI" font-size="14.00" fill="#f2f2f2">Protocols</text>
</g>
<!-- archive&#45;&gt;agregore -->
<g id="edge2" class="edge">
<title>archive&#45;&gt;agregore</title>
<path fill="none" stroke="#2de56e" d="M239.98,-112.41C240.67,-119.72 240.9,-128.31 240.65,-136.44"/>
<polygon fill="#2de56e" stroke="#2de56e" points="237.17,-136.12 240.05,-146.32 244.15,-136.55 237.17,-136.12"/>
</g>
<!-- archive&#45;&gt;p2p -->
<g id="edge4" class="edge">
<title>archive&#45;&gt;p2p</title>
<path fill="none" stroke="#2de56e" d="M192.7,-73.65C171.74,-64.33 146.07,-52.92 123.8,-43.02"/>
<polygon fill="#2de56e" stroke="#2de56e" points="125.45,-39.92 114.89,-39.06 122.6,-46.32 125.45,-39.92"/>
</g>
<!-- db -->
<g id="node5" class="node">
<title>db</title>
<path fill="#6e2de5" stroke="black" d="M294,-38C294,-38 174,-38 174,-38 168,-38 162,-32 162,-26 162,-26 162,-12 162,-12 162,-6 168,0 174,0 174,0 294,0 294,0 300,0 306,-6 306,-12 306,-12 306,-26 306,-26 306,-32 300,-38 294,-38"/>
<text text-anchor="middle" x="234" y="-22.8" font-family="System-UI" font-size="14.00" fill="#f2f2f2">Peer To Peer</text>
<text text-anchor="middle" x="234" y="-7.8" font-family="System-UI" font-size="14.00" fill="#f2f2f2">Databases</text>
</g>
<!-- archive&#45;&gt;db -->
<g id="edge1" class="edge">
<title>archive&#45;&gt;db</title>
<path fill="none" stroke="#2de56e" d="M234,-73.83C234,-66.55 234,-57.98 234,-49.83"/>
<polygon fill="#2de56e" stroke="#2de56e" points="237.5,-49.93 234,-39.93 230.5,-49.93 237.5,-49.93"/>
</g>
<!-- gov -->
<g id="node6" class="node">
<title>gov</title>
<path fill="#6e2de5" stroke="black" d="M456,-38C456,-38 336,-38 336,-38 330,-38 324,-32 324,-26 324,-26 324,-12 324,-12 324,-6 330,0 336,0 336,0 456,0 456,0 462,0 468,-6 468,-12 468,-12 468,-26 468,-26 468,-32 462,-38 456,-38"/>
<text text-anchor="middle" x="396" y="-22.8" font-family="System-UI" font-size="14.00" fill="#f2f2f2">Cooperative</text>
<text text-anchor="middle" x="396" y="-7.8" font-family="System-UI" font-size="14.00" fill="#f2f2f2">Governance</text>
</g>
<!-- archive&#45;&gt;gov -->
<g id="edge6" class="edge">
<title>archive&#45;&gt;gov</title>
<path fill="none" stroke="#2de56e" d="M275.3,-73.65C296.26,-64.33 321.93,-52.92 344.2,-43.02"/>
<polygon fill="#2de56e" stroke="#2de56e" points="345.4,-46.32 353.11,-39.06 342.55,-39.92 345.4,-46.32"/>
</g>
</g>
</svg>
