<?xml version="1.0" encoding="UTF-8" standalone="no"?>
<!DOCTYPE svg PUBLIC "-//W3C//DTD SVG 1.1//EN"
 "http://www.w3.org/Graphics/SVG/1.1/DTD/svg11.dtd">
<!-- Generated by graphviz version 7.1.0 (0)
 -->
<!-- Pages: 1 -->
<svg width="540pt" height="256pt"
 viewBox="0.00 0.00 540.00 256.00" xmlns="http://www.w3.org/2000/svg" xmlns:xlink="http://www.w3.org/1999/xlink">
<g id="graph0" class="graph" transform="scale(1 1) rotate(0) translate(36 220)">
<polygon fill="#111111" stroke="none" points="-36,36 -36,-220 504,-220 504,36 -36,36"/>
<!-- p2p -->
<g id="node1" class="node">
<title>p2p</title>
<path fill="#6e2de5" stroke="black" d="M132,-184C132,-184 12,-184 12,-184 6,-184 0,-178 0,-172 0,-172 0,-158 0,-158 0,-152 6,-146 12,-146 12,-146 132,-146 132,-146 138,-146 144,-152 144,-158 144,-158 144,-172 144,-172 144,-178 138,-184 132,-184"/>
<text text-anchor="middle" x="72" y="-168.8" font-family="System-UI" font-size="14.00" fill="#f2f2f2">Peer to Peer</text>
<text text-anchor="middle" x="72" y="-153.8" font-family="System-UI" font-size="14.00" fill="#f2f2f2">Protocols</text>
</g>
<!-- db -->
<g id="node3" class="node">
<title>db</title>
<path fill="#6e2de5" stroke="black" d="M294,-110C294,-110 174,-110 174,-110 168,-110 162,-104 162,-98 162,-98 162,-84 162,-84 162,-78 168,-72 174,-72 174,-72 294,-72 294,-72 300,-72 306,-78 306,-84 306,-84 306,-98 306,-98 306,-104 300,-110 294,-110"/>
<text text-anchor="middle" x="234" y="-94.8" font-family="System-UI" font-size="14.00" fill="#f2f2f2">Peer To Peer</text>
<text text-anchor="middle" x="234" y="-79.8" font-family="System-UI" font-size="14.00" fill="#f2f2f2">Databases</text>
</g>
<!-- p2p&#45;&gt;db -->
<g id="edge1" class="edge">
<title>p2p&#45;&gt;db</title>
<path fill="none" stroke="#2de56e" d="M113.3,-145.65C134.26,-136.33 159.93,-124.92 182.2,-115.02"/>
<polygon fill="#2de56e" stroke="#2de56e" points="183.4,-118.32 191.11,-111.06 180.55,-111.92 183.4,-118.32"/>
</g>
<!-- archive -->
<g id="node2" class="node">
<title>archive</title>
<path fill="#6e2de5" stroke="black" d="M294,-184C294,-184 174,-184 174,-184 168,-184 162,-178 162,-172 162,-172 162,-158 162,-158 162,-152 168,-146 174,-146 174,-146 294,-146 294,-146 300,-146 306,-152 306,-158 306,-158 306,-172 306,-172 306,-178 300,-184 294,-184"/>
<text text-anchor="middle" x="234" y="-168.8" font-family="System-UI" font-size="14.00" fill="#f2f2f2">Web</text>
<text text-anchor="middle" x="234" y="-153.8" font-family="System-UI" font-size="14.00" fill="#f2f2f2">Archives</text>
</g>
<!-- archive&#45;&gt;db -->
<g id="edge3" class="edge">
<title>archive&#45;&gt;db</title>
<path fill="none" stroke="#2de56e" d="M234,-145.83C234,-138.55 234,-129.98 234,-121.83"/>
<polygon fill="#2de56e" stroke="#2de56e" points="237.5,-121.93 234,-111.93 230.5,-121.93 237.5,-121.93"/>
</g>
<!-- prolly -->
<g id="node5" class="node">
<title>prolly</title>
<path fill="#6e2de5" stroke="black" d="M132,-36C132,-36 12,-36 12,-36 6,-36 0,-30 0,-24 0,-24 0,-12 0,-12 0,-6 6,0 12,0 12,0 132,0 132,0 138,0 144,-6 144,-12 144,-12 144,-24 144,-24 144,-30 138,-36 132,-36"/>
<text text-anchor="middle" x="72" y="-14.3" font-family="System-UI" font-size="14.00" fill="#f2f2f2">Prolly Trees</text>
</g>
<!-- db&#45;&gt;prolly -->
<g id="edge4" class="edge">
<title>db&#45;&gt;prolly</title>
<path fill="none" stroke="#2de56e" d="M191.86,-71.53C170.49,-62.17 144.4,-50.73 122.02,-40.92"/>
<polygon fill="#2de56e" stroke="#2de56e" points="123.65,-37.82 113.09,-37.01 120.84,-44.23 123.65,-37.82"/>
</g>
<!-- RDF -->
<g id="node6" class="node">
<title>RDF</title>
<path fill="#6e2de5" stroke="black" d="M294,-36C294,-36 174,-36 174,-36 168,-36 162,-30 162,-24 162,-24 162,-12 162,-12 162,-6 168,0 174,0 174,0 294,0 294,0 300,0 306,-6 306,-12 306,-12 306,-24 306,-24 306,-30 300,-36 294,-36"/>
<text text-anchor="middle" x="234" y="-14.3" font-family="System-UI" font-size="14.00" fill="#f2f2f2">RDF</text>
</g>
<!-- db&#45;&gt;RDF -->
<g id="edge5" class="edge">
<title>db&#45;&gt;RDF</title>
<path fill="none" stroke="#2de56e" d="M234,-71.72C234,-64.43 234,-55.86 234,-47.78"/>
<polygon fill="#2de56e" stroke="#2de56e" points="237.5,-48 234,-38 230.5,-48 237.5,-48"/>
</g>
<!-- HAMTs -->
<g id="node7" class="node">
<title>HAMTs</title>
<path fill="#6e2de5" stroke="black" d="M456,-36C456,-36 336,-36 336,-36 330,-36 324,-30 324,-24 324,-24 324,-12 324,-12 324,-6 330,0 336,0 336,0 456,0 456,0 462,0 468,-6 468,-12 468,-12 468,-24 468,-24 468,-30 462,-36 456,-36"/>
<text text-anchor="middle" x="396" y="-14.3" font-family="System-UI" font-size="14.00" fill="#f2f2f2">HAMTs</text>
</g>
<!-- db&#45;&gt;HAMTs -->
<g id="edge6" class="edge">
<title>db&#45;&gt;HAMTs</title>
<path fill="none" stroke="#2de56e" d="M276.14,-71.53C297.51,-62.17 323.6,-50.73 345.98,-40.92"/>
<polygon fill="#2de56e" stroke="#2de56e" points="347.16,-44.23 354.91,-37.01 344.35,-37.82 347.16,-44.23"/>
</g>
<!-- apps -->
<g id="node4" class="node">
<title>apps</title>
<path fill="#6e2de5" stroke="black" d="M456,-184C456,-184 336,-184 336,-184 330,-184 324,-178 324,-172 324,-172 324,-158 324,-158 324,-152 330,-146 336,-146 336,-146 456,-146 456,-146 462,-146 468,-152 468,-158 468,-158 468,-172 468,-172 468,-178 462,-184 456,-184"/>
<text text-anchor="middle" x="396" y="-168.8" font-family="System-UI" font-size="14.00" fill="#f2f2f2">Local&#45;First</text>
<text text-anchor="middle" x="396" y="-153.8" font-family="System-UI" font-size="14.00" fill="#f2f2f2">Web Apps</text>
</g>
<!-- apps&#45;&gt;db -->
<g id="edge2" class="edge">
<title>apps&#45;&gt;db</title>
<path fill="none" stroke="#2de56e" d="M354.7,-145.65C333.74,-136.33 308.07,-124.92 285.8,-115.02"/>
<polygon fill="#2de56e" stroke="#2de56e" points="287.45,-111.92 276.89,-111.06 284.6,-118.32 287.45,-111.92"/>
</g>
</g>
</svg>
