<?xml version="1.0" encoding="UTF-8" standalone="no"?>
<!DOCTYPE svg PUBLIC "-//W3C//DTD SVG 1.1//EN"
 "http://www.w3.org/Graphics/SVG/1.1/DTD/svg11.dtd">
<!-- Generated by graphviz version 7.1.0 (0)
 -->
<!-- Pages: 1 -->
<svg width="540pt" height="258pt"
 viewBox="0.00 0.00 540.00 258.00" xmlns="http://www.w3.org/2000/svg" xmlns:xlink="http://www.w3.org/1999/xlink">
<g id="graph0" class="graph" transform="scale(1 1) rotate(0) translate(36 222)">
<polygon fill="#111111" stroke="none" points="-36,36 -36,-222 504,-222 504,36 -36,36"/>
<!-- mesh -->
<g id="node1" class="node">
<title>mesh</title>
<path fill="#6e2de5" stroke="black" d="M213,-186C213,-186 93,-186 93,-186 87,-186 81,-180 81,-174 81,-174 81,-160 81,-160 81,-154 87,-148 93,-148 93,-148 213,-148 213,-148 219,-148 225,-154 225,-160 225,-160 225,-174 225,-174 225,-180 219,-186 213,-186"/>
<text text-anchor="middle" x="153" y="-170.8" font-family="System-UI" font-size="14.00" fill="#f2f2f2">Community</text>
<text text-anchor="middle" x="153" y="-155.8" font-family="System-UI" font-size="14.00" fill="#f2f2f2">Mesh Networks</text>
</g>
<!-- gov -->
<g id="node3" class="node">
<title>gov</title>
<path fill="#6e2de5" stroke="black" d="M294,-112C294,-112 174,-112 174,-112 168,-112 162,-106 162,-100 162,-100 162,-86 162,-86 162,-80 168,-74 174,-74 174,-74 294,-74 294,-74 300,-74 306,-80 306,-86 306,-86 306,-100 306,-100 306,-106 300,-112 294,-112"/>
<text text-anchor="middle" x="234" y="-96.8" font-family="System-UI" font-size="14.00" fill="#f2f2f2">Cooperative</text>
<text text-anchor="middle" x="234" y="-81.8" font-family="System-UI" font-size="14.00" fill="#f2f2f2">Governance</text>
</g>
<!-- mesh&#45;&gt;gov -->
<g id="edge1" class="edge">
<title>mesh&#45;&gt;gov</title>
<path fill="none" stroke="#2de56e" d="M173.44,-147.83C182.96,-139.37 194.46,-129.15 204.87,-119.9"/>
<polygon fill="#2de56e" stroke="#2de56e" points="207.01,-122.68 212.15,-113.42 202.35,-117.45 207.01,-122.68"/>
</g>
<!-- archive -->
<g id="node2" class="node">
<title>archive</title>
<path fill="#6e2de5" stroke="black" d="M375,-186C375,-186 255,-186 255,-186 249,-186 243,-180 243,-174 243,-174 243,-160 243,-160 243,-154 249,-148 255,-148 255,-148 375,-148 375,-148 381,-148 387,-154 387,-160 387,-160 387,-174 387,-174 387,-180 381,-186 375,-186"/>
<text text-anchor="middle" x="315" y="-170.8" font-family="System-UI" font-size="14.00" fill="#f2f2f2">Web</text>
<text text-anchor="middle" x="315" y="-155.8" font-family="System-UI" font-size="14.00" fill="#f2f2f2">Archives</text>
</g>
<!-- archive&#45;&gt;gov -->
<g id="edge2" class="edge">
<title>archive&#45;&gt;gov</title>
<path fill="none" stroke="#2de56e" d="M294.56,-147.83C285.04,-139.37 273.54,-129.15 263.13,-119.9"/>
<polygon fill="#2de56e" stroke="#2de56e" points="265.65,-117.45 255.85,-113.42 260.99,-122.68 265.65,-117.45"/>
</g>
<!-- Cooperatives -->
<g id="node4" class="node">
<title>Cooperatives</title>
<path fill="#6e2de5" stroke="black" d="M132,-37C132,-37 12,-37 12,-37 6,-37 0,-31 0,-25 0,-25 0,-13 0,-13 0,-7 6,-1 12,-1 12,-1 132,-1 132,-1 138,-1 144,-7 144,-13 144,-13 144,-25 144,-25 144,-31 138,-37 132,-37"/>
<text text-anchor="middle" x="72" y="-15.3" font-family="System-UI" font-size="14.00" fill="#f2f2f2">Cooperatives</text>
</g>
<!-- gov&#45;&gt;Cooperatives -->
<g id="edge3" class="edge">
<title>gov&#45;&gt;Cooperatives</title>
<path fill="none" stroke="#2de56e" d="M192.7,-73.65C171.09,-64.04 144.48,-52.21 121.74,-42.11"/>
<polygon fill="#2de56e" stroke="#2de56e" points="123.21,-38.93 112.65,-38.07 120.37,-45.33 123.21,-38.93"/>
</g>
<!-- DAOs -->
<g id="node5" class="node">
<title>DAOs</title>
<path fill="#6e2de5" stroke="black" d="M294,-37C294,-37 174,-37 174,-37 168,-37 162,-31 162,-25 162,-25 162,-13 162,-13 162,-7 168,-1 174,-1 174,-1 294,-1 294,-1 300,-1 306,-7 306,-13 306,-13 306,-25 306,-25 306,-31 300,-37 294,-37"/>
<text text-anchor="middle" x="234" y="-15.3" font-family="System-UI" font-size="14.00" fill="#f2f2f2">DAOs</text>
</g>
<!-- gov&#45;&gt;DAOs -->
<g id="edge4" class="edge">
<title>gov&#45;&gt;DAOs</title>
<path fill="none" stroke="#2de56e" d="M234,-73.83C234,-66.24 234,-57.24 234,-48.79"/>
<polygon fill="#2de56e" stroke="#2de56e" points="237.5,-48.93 234,-38.93 230.5,-48.93 237.5,-48.93"/>
</g>
<!-- Inter&#45;group\nTransactions -->
<g id="node6" class="node">
<title>Inter&#45;group\nTransactions</title>
<path fill="#6e2de5" stroke="black" d="M456,-38C456,-38 336,-38 336,-38 330,-38 324,-32 324,-26 324,-26 324,-12 324,-12 324,-6 330,0 336,0 336,0 456,0 456,0 462,0 468,-6 468,-12 468,-12 468,-26 468,-26 468,-32 462,-38 456,-38"/>
<text text-anchor="middle" x="396" y="-22.8" font-family="System-UI" font-size="14.00" fill="#f2f2f2">Inter&#45;group</text>
<text text-anchor="middle" x="396" y="-7.8" font-family="System-UI" font-size="14.00" fill="#f2f2f2">Transactions</text>
</g>
<!-- gov&#45;&gt;Inter&#45;group\nTransactions -->
<g id="edge5" class="edge">
<title>gov&#45;&gt;Inter&#45;group\nTransactions</title>
<path fill="none" stroke="#2de56e" d="M275.3,-73.65C296.26,-64.33 321.93,-52.92 344.2,-43.02"/>
<polygon fill="#2de56e" stroke="#2de56e" points="345.4,-46.32 353.11,-39.06 342.55,-39.92 345.4,-46.32"/>
</g>
</g>
</svg>
