<?xml version="1.0" encoding="UTF-8" standalone="no"?>
<!DOCTYPE svg PUBLIC "-//W3C//DTD SVG 1.1//EN"
 "http://www.w3.org/Graphics/SVG/1.1/DTD/svg11.dtd">
<!-- Generated by graphviz version 7.1.0 (0)
 -->
<!-- Pages: 1 -->
<svg width="590pt" height="355pt"
 viewBox="0.00 0.00 590.00 355.00" xmlns="http://www.w3.org/2000/svg" xmlns:xlink="http://www.w3.org/1999/xlink">
<g id="graph0" class="graph" transform="scale(1 1) rotate(0) translate(36 319)">
<polygon fill="#111111" stroke="none" points="-36,36 -36,-319 554,-319 554,36 -36,36"/>
<text text-anchor="middle" x="259" y="-267.8" font-family="system-ui" font-size="14.00" fill="#f2f2f2">Holisitic Local&#45;First Software</text>
<!-- agregore -->
<g id="node1" class="node">
<title>agregore</title>
<path fill="#6e2de5" stroke="#2de56e" d="M348,-260C348,-260 228,-260 228,-260 222,-260 216,-254 216,-248 216,-248 216,-234 216,-234 216,-228 222,-222 228,-222 228,-222 348,-222 348,-222 354,-222 360,-228 360,-234 360,-234 360,-248 360,-248 360,-254 354,-260 348,-260"/>
<text text-anchor="middle" x="288" y="-244.8" font-family="System-UI" font-size="14.00" fill="#f2f2f2">Agregore</text>
<text text-anchor="middle" x="288" y="-229.8" font-family="System-UI" font-size="14.00" fill="#f2f2f2">Browser</text>
</g>
<!-- mesh -->
<g id="node2" class="node">
<title>mesh</title>
<path fill="#6e2de5" stroke="black" d="M294,-186C294,-186 174,-186 174,-186 168,-186 162,-180 162,-174 162,-174 162,-160 162,-160 162,-154 168,-148 174,-148 174,-148 294,-148 294,-148 300,-148 306,-154 306,-160 306,-160 306,-174 306,-174 306,-180 300,-186 294,-186"/>
<text text-anchor="middle" x="234" y="-170.8" font-family="System-UI" font-size="14.00" fill="#f2f2f2">Community</text>
<text text-anchor="middle" x="234" y="-155.8" font-family="System-UI" font-size="14.00" fill="#f2f2f2">Mesh Networks</text>
</g>
<!-- agregore&#45;&gt;mesh -->
<g id="edge11" class="edge">
<title>agregore&#45;&gt;mesh</title>
<path fill="none" stroke="#2de56e" d="M274.37,-221.83C268.41,-213.88 261.28,-204.37 254.68,-195.57"/>
<polygon fill="#2de56e" stroke="#2de56e" points="257.52,-193.52 248.72,-187.62 251.92,-197.72 257.52,-193.52"/>
</g>
<!-- p2p -->
<g id="node3" class="node">
<title>p2p</title>
<path fill="#6e2de5" stroke="black" d="M344,-112C344,-112 224,-112 224,-112 218,-112 212,-106 212,-100 212,-100 212,-86 212,-86 212,-80 218,-74 224,-74 224,-74 344,-74 344,-74 350,-74 356,-80 356,-86 356,-86 356,-100 356,-100 356,-106 350,-112 344,-112"/>
<text text-anchor="middle" x="284" y="-96.8" font-family="System-UI" font-size="14.00" fill="#f2f2f2">Peer to Peer</text>
<text text-anchor="middle" x="284" y="-81.8" font-family="System-UI" font-size="14.00" fill="#f2f2f2">Protocols</text>
</g>
<!-- agregore&#45;&gt;p2p -->
<g id="edge2" class="edge">
<title>agregore&#45;&gt;p2p</title>
<path fill="none" stroke="#2de56e" d="M291.77,-221.82C296.59,-211.71 303.01,-198.65 306,-186 309.88,-169.56 310.35,-164.32 306,-148 303.64,-139.14 299.44,-130.22 295.2,-122.26"/>
<polygon fill="#2de56e" stroke="#2de56e" points="298.4,-120.81 290.5,-113.75 292.27,-124.19 298.4,-120.81"/>
</g>
<!-- archive -->
<g id="node4" class="node">
<title>archive</title>
<path fill="#6e2de5" stroke="black" d="M132,-186C132,-186 12,-186 12,-186 6,-186 0,-180 0,-174 0,-174 0,-160 0,-160 0,-154 6,-148 12,-148 12,-148 132,-148 132,-148 138,-148 144,-154 144,-160 144,-160 144,-174 144,-174 144,-180 138,-186 132,-186"/>
<text text-anchor="middle" x="72" y="-170.8" font-family="System-UI" font-size="14.00" fill="#f2f2f2">Web</text>
<text text-anchor="middle" x="72" y="-155.8" font-family="System-UI" font-size="14.00" fill="#f2f2f2">Archives</text>
</g>
<!-- agregore&#45;&gt;archive -->
<g id="edge8" class="edge">
<title>agregore&#45;&gt;archive</title>
<path fill="none" stroke="#2de56e" d="M226.68,-221.55C196.93,-211.94 161.37,-200.12 131.82,-190.03"/>
<polygon fill="#2de56e" stroke="#2de56e" points="133.25,-186.82 122.66,-186.89 130.98,-193.45 133.25,-186.82"/>
</g>
<!-- apps -->
<g id="node6" class="node">
<title>apps</title>
<path fill="#6e2de5" stroke="black" d="M506,-112C506,-112 386,-112 386,-112 380,-112 374,-106 374,-100 374,-100 374,-86 374,-86 374,-80 380,-74 386,-74 386,-74 506,-74 506,-74 512,-74 518,-80 518,-86 518,-86 518,-100 518,-100 518,-106 512,-112 506,-112"/>
<text text-anchor="middle" x="446" y="-96.8" font-family="System-UI" font-size="14.00" fill="#f2f2f2">Local&#45;First</text>
<text text-anchor="middle" x="446" y="-81.8" font-family="System-UI" font-size="14.00" fill="#f2f2f2">Web Apps</text>
</g>
<!-- agregore&#45;&gt;apps -->
<g id="edge6" class="edge">
<title>agregore&#45;&gt;apps</title>
<path fill="none" stroke="#2de56e" d="M308.01,-221.51C335.79,-195.84 386.18,-149.28 417.77,-120.08"/>
<polygon fill="#2de56e" stroke="#2de56e" points="420.07,-122.73 425.04,-113.37 415.32,-117.58 420.07,-122.73"/>
</g>
<!-- mesh&#45;&gt;p2p -->
<g id="edge10" class="edge">
<title>mesh&#45;&gt;p2p</title>
<path fill="none" stroke="#2de56e" d="M246.62,-147.83C252.08,-139.96 258.6,-130.57 264.66,-121.85"/>
<polygon fill="#2de56e" stroke="#2de56e" points="267.52,-123.87 270.35,-113.66 261.77,-119.87 267.52,-123.87"/>
</g>
<!-- gov -->
<g id="node7" class="node">
<title>gov</title>
<path fill="#6e2de5" stroke="black" d="M182,-112C182,-112 62,-112 62,-112 56,-112 50,-106 50,-100 50,-100 50,-86 50,-86 50,-80 56,-74 62,-74 62,-74 182,-74 182,-74 188,-74 194,-80 194,-86 194,-86 194,-100 194,-100 194,-106 188,-112 182,-112"/>
<text text-anchor="middle" x="122" y="-96.8" font-family="System-UI" font-size="14.00" fill="#f2f2f2">Cooperative</text>
<text text-anchor="middle" x="122" y="-81.8" font-family="System-UI" font-size="14.00" fill="#f2f2f2">Governance</text>
</g>
<!-- mesh&#45;&gt;gov -->
<g id="edge12" class="edge">
<title>mesh&#45;&gt;gov</title>
<path fill="none" stroke="#2de56e" d="M205.45,-147.65C191.63,-138.76 174.84,-127.97 159.96,-118.4"/>
<polygon fill="#2de56e" stroke="#2de56e" points="162.08,-115.6 151.77,-113.14 158.29,-121.49 162.08,-115.6"/>
</g>
<!-- p2p&#45;&gt;agregore -->
<g id="edge1" class="edge">
<title>p2p&#45;&gt;agregore</title>
<path fill="none" stroke="#2de56e" d="M305.82,-112.42C313.4,-122.4 320.6,-135.26 324,-148 328.35,-164.32 327.88,-169.56 324,-186 321.9,-194.89 318.1,-203.99 313.64,-212.13"/>
<polygon fill="#2de56e" stroke="#2de56e" points="310.74,-210.17 308.52,-220.53 316.71,-213.82 310.74,-210.17"/>
</g>
<!-- db -->
<g id="node5" class="node">
<title>db</title>
<path fill="#6e2de5" stroke="black" d="M344,-38C344,-38 224,-38 224,-38 218,-38 212,-32 212,-26 212,-26 212,-12 212,-12 212,-6 218,0 224,0 224,0 344,0 344,0 350,0 356,-6 356,-12 356,-12 356,-26 356,-26 356,-32 350,-38 344,-38"/>
<text text-anchor="middle" x="284" y="-22.8" font-family="System-UI" font-size="14.00" fill="#f2f2f2">Peer To Peer</text>
<text text-anchor="middle" x="284" y="-7.8" font-family="System-UI" font-size="14.00" fill="#f2f2f2">Databases</text>
</g>
<!-- p2p&#45;&gt;db -->
<g id="edge3" class="edge">
<title>p2p&#45;&gt;db</title>
<path fill="none" stroke="#2de56e" d="M284,-73.83C284,-66.55 284,-57.98 284,-49.83"/>
<polygon fill="#2de56e" stroke="#2de56e" points="287.5,-49.93 284,-39.93 280.5,-49.93 287.5,-49.93"/>
</g>
<!-- archive&#45;&gt;agregore -->
<g id="edge7" class="edge">
<title>archive&#45;&gt;agregore</title>
<path fill="none" stroke="#2de56e" d="M133.18,-186.4C162.91,-196 198.47,-207.82 228.03,-217.92"/>
<polygon fill="#2de56e" stroke="#2de56e" points="226.61,-221.13 237.2,-221.06 228.88,-214.51 226.61,-221.13"/>
</g>
<!-- archive&#45;&gt;p2p -->
<g id="edge9" class="edge">
<title>archive&#45;&gt;p2p</title>
<path fill="none" stroke="#2de56e" d="M126.32,-147.55C154.62,-137.94 189.42,-126.12 219.13,-116.03"/>
<polygon fill="#2de56e" stroke="#2de56e" points="220.04,-119.42 228.39,-112.89 217.79,-112.79 220.04,-119.42"/>
</g>
<!-- archive&#45;&gt;db -->
<g id="edge5" class="edge">
<title>archive&#45;&gt;db</title>
<path fill="none" stroke="#2de56e" d="M56.44,-147.61C41.51,-127.64 23.6,-95.69 41,-74 60.89,-49.21 138.15,-35.08 200.28,-27.54"/>
<polygon fill="#2de56e" stroke="#2de56e" points="200.66,-31.02 210.19,-26.39 199.85,-24.07 200.66,-31.02"/>
</g>
<!-- archive&#45;&gt;gov -->
<g id="edge13" class="edge">
<title>archive&#45;&gt;gov</title>
<path fill="none" stroke="#2de56e" d="M84.62,-147.83C90.08,-139.96 96.6,-130.57 102.66,-121.85"/>
<polygon fill="#2de56e" stroke="#2de56e" points="105.52,-123.87 108.35,-113.66 99.77,-119.87 105.52,-123.87"/>
</g>
<!-- apps&#45;&gt;db -->
<g id="edge4" class="edge">
<title>apps&#45;&gt;db</title>
<path fill="none" stroke="#2de56e" d="M404.7,-73.65C383.74,-64.33 358.07,-52.92 335.8,-43.02"/>
<polygon fill="#2de56e" stroke="#2de56e" points="337.45,-39.92 326.89,-39.06 334.6,-46.32 337.45,-39.92"/>
</g>
</g>
</svg>
