<?xml version="1.0" encoding="UTF-8" standalone="no"?>
<!DOCTYPE svg PUBLIC "-//W3C//DTD SVG 1.1//EN"
 "http://www.w3.org/Graphics/SVG/1.1/DTD/svg11.dtd">
<!-- Generated by graphviz version 8.0.4 (20230421.1958)
 -->
<!-- Pages: 1 -->
<svg width="740pt" height="382pt"
 viewBox="0.00 0.00 740.00 382.00" xmlns="http://www.w3.org/2000/svg" xmlns:xlink="http://www.w3.org/1999/xlink">
<g id="graph0" class="graph" transform="scale(1 1) rotate(0) translate(36 346)">
<polygon fill="#111101" stroke="none" points="-36,36 -36,-346 704,-346 704,36 -36,36"/>
<text text-anchor="middle" x="334" y="-292.7" font-family="system-ui" font-size="14.00" fill="#f2f2f2">Holisitic Local&#45;First Software</text>
<!-- agregore -->
<g id="node1" class="node">
<title>agregore</title>
<path fill="#6e2de5" stroke="#2de56e" d="M344,-284C344,-284 224,-284 224,-284 218,-284 212,-278 212,-272 212,-272 212,-252 212,-252 212,-246 218,-240 224,-240 224,-240 344,-240 344,-240 350,-240 356,-246 356,-252 356,-252 356,-272 356,-272 356,-278 350,-284 344,-284"/>
<text text-anchor="middle" x="284" y="-266.7" font-family="System-UI" font-size="14.00" fill="#f2f2f2">Agregore</text>
<text text-anchor="middle" x="284" y="-248.7" font-family="System-UI" font-size="14.00" fill="#f2f2f2">Browser</text>
</g>
<!-- mesh -->
<g id="node2" class="node">
<title>mesh</title>
<path fill="#6e2de5" stroke="black" d="M263,-204C263,-204 143,-204 143,-204 137,-204 131,-198 131,-192 131,-192 131,-172 131,-172 131,-166 137,-160 143,-160 143,-160 263,-160 263,-160 269,-160 275,-166 275,-172 275,-172 275,-192 275,-192 275,-198 269,-204 263,-204"/>
<text text-anchor="middle" x="203" y="-186.7" font-family="System-UI" font-size="14.00" fill="#f2f2f2">Community</text>
<text text-anchor="middle" x="203" y="-168.7" font-family="System-UI" font-size="14.00" fill="#f2f2f2">Mesh Networks</text>
</g>
<!-- agregore&#45;&gt;mesh -->
<g id="edge12" class="edge">
<title>agregore&#45;&gt;mesh</title>
<path fill="none" stroke="#2de56e" d="M261.87,-239.69C252.94,-231.09 242.5,-221.03 232.91,-211.8"/>
<polygon fill="#2de56e" stroke="#2de56e" points="235.74,-209.7 226.11,-205.29 230.88,-214.75 235.74,-209.7"/>
</g>
<!-- p2p -->
<g id="node3" class="node">
<title>p2p</title>
<path fill="#6e2de5" stroke="black" d="M494,-124C494,-124 374,-124 374,-124 368,-124 362,-118 362,-112 362,-112 362,-92 362,-92 362,-86 368,-80 374,-80 374,-80 494,-80 494,-80 500,-80 506,-86 506,-92 506,-92 506,-112 506,-112 506,-118 500,-124 494,-124"/>
<text text-anchor="middle" x="434" y="-106.7" font-family="System-UI" font-size="14.00" fill="#f2f2f2">Peer to Peer</text>
<text text-anchor="middle" x="434" y="-88.7" font-family="System-UI" font-size="14.00" fill="#f2f2f2">Protocols</text>
</g>
<!-- agregore&#45;&gt;p2p -->
<g id="edge1" class="edge">
<title>agregore&#45;&gt;p2p</title>
<path fill="none" stroke="#2de56e" d="M356.33,-254.29C389.35,-247.19 425.58,-232.83 446,-204 460.14,-184.03 455.46,-156.08 448.18,-134.65"/>
<polygon fill="#2de56e" stroke="#2de56e" points="451.14,-133.55 444.35,-125.41 444.58,-136 451.14,-133.55"/>
</g>
<!-- archive -->
<g id="node4" class="node">
<title>archive</title>
<path fill="#6e2de5" stroke="black" d="M425,-204C425,-204 305,-204 305,-204 299,-204 293,-198 293,-192 293,-192 293,-172 293,-172 293,-166 299,-160 305,-160 305,-160 425,-160 425,-160 431,-160 437,-166 437,-172 437,-172 437,-192 437,-192 437,-198 431,-204 425,-204"/>
<text text-anchor="middle" x="365" y="-186.7" font-family="System-UI" font-size="14.00" fill="#f2f2f2">Web</text>
<text text-anchor="middle" x="365" y="-168.7" font-family="System-UI" font-size="14.00" fill="#f2f2f2">Archives</text>
</g>
<!-- agregore&#45;&gt;archive -->
<g id="edge9" class="edge">
<title>agregore&#45;&gt;archive</title>
<path fill="none" stroke="#2de56e" d="M306.13,-239.69C315.06,-231.09 325.5,-221.03 335.09,-211.8"/>
<polygon fill="#2de56e" stroke="#2de56e" points="337.12,-214.75 341.89,-205.29 332.26,-209.7 337.12,-214.75"/>
</g>
<!-- apps -->
<g id="node6" class="node">
<title>apps</title>
<path fill="#6e2de5" stroke="black" d="M132,-124C132,-124 12,-124 12,-124 6,-124 0,-118 0,-112 0,-112 0,-92 0,-92 0,-86 6,-80 12,-80 12,-80 132,-80 132,-80 138,-80 144,-86 144,-92 144,-92 144,-112 144,-112 144,-118 138,-124 132,-124"/>
<text text-anchor="middle" x="72" y="-106.7" font-family="System-UI" font-size="14.00" fill="#f2f2f2">Local&#45;First</text>
<text text-anchor="middle" x="72" y="-88.7" font-family="System-UI" font-size="14.00" fill="#f2f2f2">Web Apps</text>
</g>
<!-- agregore&#45;&gt;apps -->
<g id="edge7" class="edge">
<title>agregore&#45;&gt;apps</title>
<path fill="none" stroke="#2de56e" d="M211.62,-248.2C181.13,-239.81 147,-226.14 122,-204 101.23,-185.61 88.13,-156.6 80.57,-134.39"/>
<polygon fill="#2de56e" stroke="#2de56e" points="83.67,-133.57 77.3,-125.1 77,-135.69 83.67,-133.57"/>
</g>
<!-- mesh&#45;&gt;p2p -->
<g id="edge11" class="edge">
<title>mesh&#45;&gt;p2p</title>
<path fill="none" stroke="#2de56e" d="M266.43,-159.58C295.59,-149.74 330.35,-138 360.63,-127.77"/>
<polygon fill="#2de56e" stroke="#2de56e" points="361.36,-130.88 369.71,-124.37 359.12,-124.25 361.36,-130.88"/>
</g>
<!-- gov -->
<g id="node7" class="node">
<title>gov</title>
<path fill="#6e2de5" stroke="black" d="M294,-124C294,-124 174,-124 174,-124 168,-124 162,-118 162,-112 162,-112 162,-92 162,-92 162,-86 168,-80 174,-80 174,-80 294,-80 294,-80 300,-80 306,-86 306,-92 306,-92 306,-112 306,-112 306,-118 300,-124 294,-124"/>
<text text-anchor="middle" x="234" y="-106.7" font-family="System-UI" font-size="14.00" fill="#f2f2f2">Cooperative</text>
<text text-anchor="middle" x="234" y="-88.7" font-family="System-UI" font-size="14.00" fill="#f2f2f2">Governance</text>
</g>
<!-- mesh&#45;&gt;gov -->
<g id="edge13" class="edge">
<title>mesh&#45;&gt;gov</title>
<path fill="none" stroke="#2de56e" d="M211.47,-159.69C214.58,-151.86 218.17,-142.83 221.56,-134.31"/>
<polygon fill="#2de56e" stroke="#2de56e" points="225.1,-135.87 225.54,-125.29 218.59,-133.29 225.1,-135.87"/>
</g>
<!-- db -->
<g id="node5" class="node">
<title>db</title>
<path fill="#6e2de5" stroke="black" d="M394,-44C394,-44 274,-44 274,-44 268,-44 262,-38 262,-32 262,-32 262,-12 262,-12 262,-6 268,0 274,0 274,0 394,0 394,0 400,0 406,-6 406,-12 406,-12 406,-32 406,-32 406,-38 400,-44 394,-44"/>
<text text-anchor="middle" x="334" y="-26.7" font-family="System-UI" font-size="14.00" fill="#f2f2f2">Peer To Peer</text>
<text text-anchor="middle" x="334" y="-8.7" font-family="System-UI" font-size="14.00" fill="#f2f2f2">Databases</text>
</g>
<!-- p2p&#45;&gt;db -->
<g id="edge4" class="edge">
<title>p2p&#45;&gt;db</title>
<path fill="none" stroke="#2de56e" d="M406.67,-79.69C395.32,-70.83 381.99,-60.43 369.86,-50.97"/>
<polygon fill="#2de56e" stroke="#2de56e" points="372.33,-47.68 362.29,-44.29 368.02,-53.2 372.33,-47.68"/>
</g>
<!-- archive&#45;&gt;p2p -->
<g id="edge10" class="edge">
<title>archive&#45;&gt;p2p</title>
<path fill="none" stroke="#2de56e" d="M383.85,-159.69C391.31,-151.26 400,-141.44 408.03,-132.36"/>
<polygon fill="#2de56e" stroke="#2de56e" points="410.16,-135.1 414.17,-125.29 404.92,-130.46 410.16,-135.1"/>
</g>
<!-- archive&#45;&gt;db -->
<g id="edge6" class="edge">
<title>archive&#45;&gt;db</title>
<path fill="none" stroke="#2de56e" d="M360.39,-159.64C358.11,-148.95 355.35,-135.8 353,-124 348.4,-100.93 343.5,-74.83 339.83,-54.94"/>
<polygon fill="#2de56e" stroke="#2de56e" points="343.12,-54.51 337.87,-45.31 336.24,-55.77 343.12,-54.51"/>
</g>
<!-- archive&#45;&gt;gov -->
<g id="edge14" class="edge">
<title>archive&#45;&gt;gov</title>
<path fill="none" stroke="#2de56e" d="M329.2,-159.69C313.75,-150.49 295.5,-139.62 279.14,-129.87"/>
<polygon fill="#2de56e" stroke="#2de56e" points="281.14,-126.4 270.75,-124.29 277.55,-132.41 281.14,-126.4"/>
</g>
<!-- web -->
<g id="node9" class="node">
<title>web</title>
<path fill="#6e2de5" stroke="black" d="M656,-120C656,-120 536,-120 536,-120 530,-120 524,-114 524,-108 524,-108 524,-96 524,-96 524,-90 530,-84 536,-84 536,-84 656,-84 656,-84 662,-84 668,-90 668,-96 668,-96 668,-108 668,-108 668,-114 662,-120 656,-120"/>
<text text-anchor="middle" x="596" y="-97.7" font-family="System-UI" font-size="14.00" fill="#f2f2f2">The Web</text>
</g>
<!-- archive&#45;&gt;web -->
<g id="edge8" class="edge">
<title>archive&#45;&gt;web</title>
<path fill="none" stroke="#2de56e" d="M428.43,-159.58C461.33,-148.47 501.36,-134.96 534.05,-123.92"/>
<polygon fill="#2de56e" stroke="#2de56e" points="535.03,-126.94 543.38,-120.43 532.79,-120.31 535.03,-126.94"/>
</g>
<!-- apps&#45;&gt;db -->
<g id="edge5" class="edge">
<title>apps&#45;&gt;db</title>
<path fill="none" stroke="#2de56e" d="M143.94,-79.58C177.3,-69.65 217.12,-57.8 251.68,-47.51"/>
<polygon fill="#2de56e" stroke="#2de56e" points="252.64,-50.58 261.22,-44.37 250.64,-43.87 252.64,-50.58"/>
</g>
<!-- press -->
<g id="node8" class="node">
<title>press</title>
<path fill="#6e2de5" stroke="black" d="M640,-200C640,-200 520,-200 520,-200 514,-200 508,-194 508,-188 508,-188 508,-176 508,-176 508,-170 514,-164 520,-164 520,-164 640,-164 640,-164 646,-164 652,-170 652,-176 652,-176 652,-188 652,-188 652,-194 646,-200 640,-200"/>
<text text-anchor="middle" x="580" y="-177.7" font-family="System-UI" font-size="14.00" fill="#f2f2f2">Distributed Press</text>
</g>
<!-- press&#45;&gt;p2p -->
<g id="edge2" class="edge">
<title>press&#45;&gt;p2p</title>
<path fill="none" stroke="#2de56e" d="M547.6,-163.69C528.8,-153.65 504.74,-140.79 483.61,-129.5"/>
<polygon fill="#2de56e" stroke="#2de56e" points="485.6,-126.06 475.13,-124.44 482.3,-132.24 485.6,-126.06"/>
</g>
<!-- press&#45;&gt;web -->
<g id="edge3" class="edge">
<title>press&#45;&gt;web</title>
<path fill="none" stroke="#2de56e" d="M583.55,-163.69C585.52,-154.1 588.01,-141.93 590.25,-131.02"/>
<polygon fill="#2de56e" stroke="#2de56e" points="593.88,-131.76 592.46,-121.26 587.02,-130.36 593.88,-131.76"/>
</g>
</g>
</svg>
