<?xml version="1.0" encoding="UTF-8" standalone="no"?>
<!DOCTYPE svg PUBLIC "-//W3C//DTD SVG 1.1//EN"
 "http://www.w3.org/Graphics/SVG/1.1/DTD/svg11.dtd">
<!-- Generated by graphviz version 7.1.0 (0)
 -->
<!-- Pages: 1 -->
<svg width="378pt" height="258pt"
 viewBox="0.00 0.00 378.00 258.00" xmlns="http://www.w3.org/2000/svg" xmlns:xlink="http://www.w3.org/1999/xlink">
<g id="graph0" class="graph" transform="scale(1 1) rotate(0) translate(36 222)">
<polygon fill="#111111" stroke="none" points="-36,36 -36,-222 342,-222 342,36 -36,36"/>
<!-- agregore -->
<g id="node1" class="node">
<title>agregore</title>
<path fill="#6e2de5" stroke="#2de56e" d="M213,-186C213,-186 93,-186 93,-186 87,-186 81,-180 81,-174 81,-174 81,-160 81,-160 81,-154 87,-148 93,-148 93,-148 213,-148 213,-148 219,-148 225,-154 225,-160 225,-160 225,-174 225,-174 225,-180 219,-186 213,-186"/>
<text text-anchor="middle" x="153" y="-170.8" font-family="System-UI" font-size="14.00" fill="#f2f2f2">Agregore</text>
<text text-anchor="middle" x="153" y="-155.8" font-family="System-UI" font-size="14.00" fill="#f2f2f2">Browser</text>
</g>
<!-- mesh -->
<g id="node2" class="node">
<title>mesh</title>
<path fill="#6e2de5" stroke="black" d="M294,-112C294,-112 174,-112 174,-112 168,-112 162,-106 162,-100 162,-100 162,-86 162,-86 162,-80 168,-74 174,-74 174,-74 294,-74 294,-74 300,-74 306,-80 306,-86 306,-86 306,-100 306,-100 306,-106 300,-112 294,-112"/>
<text text-anchor="middle" x="234" y="-96.8" font-family="System-UI" font-size="14.00" fill="#f2f2f2">Community</text>
<text text-anchor="middle" x="234" y="-81.8" font-family="System-UI" font-size="14.00" fill="#f2f2f2">Mesh Networks</text>
</g>
<!-- agregore&#45;&gt;mesh -->
<g id="edge1" class="edge">
<title>agregore&#45;&gt;mesh</title>
<path fill="none" stroke="#2de56e" d="M173.44,-147.83C182.96,-139.37 194.46,-129.15 204.87,-119.9"/>
<polygon fill="#2de56e" stroke="#2de56e" points="207.01,-122.68 212.15,-113.42 202.35,-117.45 207.01,-122.68"/>
</g>
<!-- adhoc -->
<g id="node5" class="node">
<title>adhoc</title>
<path fill="#6e2de5" stroke="black" d="M132,-112C132,-112 12,-112 12,-112 6,-112 0,-106 0,-100 0,-100 0,-86 0,-86 0,-80 6,-74 12,-74 12,-74 132,-74 132,-74 138,-74 144,-80 144,-86 144,-86 144,-100 144,-100 144,-106 138,-112 132,-112"/>
<text text-anchor="middle" x="72" y="-96.8" font-family="System-UI" font-size="14.00" fill="#f2f2f2">Ad&#45;Hoc</text>
<text text-anchor="middle" x="72" y="-81.8" font-family="System-UI" font-size="14.00" fill="#f2f2f2">Networks</text>
</g>
<!-- agregore&#45;&gt;adhoc -->
<g id="edge4" class="edge">
<title>agregore&#45;&gt;adhoc</title>
<path fill="none" stroke="#2de56e" d="M132.56,-147.83C123.04,-139.37 111.54,-129.15 101.13,-119.9"/>
<polygon fill="#2de56e" stroke="#2de56e" points="103.65,-117.45 93.85,-113.42 98.99,-122.68 103.65,-117.45"/>
</g>
<!-- p2p -->
<g id="node3" class="node">
<title>p2p</title>
<path fill="#6e2de5" stroke="black" d="M132,-38C132,-38 12,-38 12,-38 6,-38 0,-32 0,-26 0,-26 0,-12 0,-12 0,-6 6,0 12,0 12,0 132,0 132,0 138,0 144,-6 144,-12 144,-12 144,-26 144,-26 144,-32 138,-38 132,-38"/>
<text text-anchor="middle" x="72" y="-22.8" font-family="System-UI" font-size="14.00" fill="#f2f2f2">Peer to Peer</text>
<text text-anchor="middle" x="72" y="-7.8" font-family="System-UI" font-size="14.00" fill="#f2f2f2">Protocols</text>
</g>
<!-- mesh&#45;&gt;p2p -->
<g id="edge2" class="edge">
<title>mesh&#45;&gt;p2p</title>
<path fill="none" stroke="#2de56e" d="M192.7,-73.65C171.74,-64.33 146.07,-52.92 123.8,-43.02"/>
<polygon fill="#2de56e" stroke="#2de56e" points="125.45,-39.92 114.89,-39.06 122.6,-46.32 125.45,-39.92"/>
</g>
<!-- gov -->
<g id="node4" class="node">
<title>gov</title>
<path fill="#6e2de5" stroke="black" d="M294,-38C294,-38 174,-38 174,-38 168,-38 162,-32 162,-26 162,-26 162,-12 162,-12 162,-6 168,0 174,0 174,0 294,0 294,0 300,0 306,-6 306,-12 306,-12 306,-26 306,-26 306,-32 300,-38 294,-38"/>
<text text-anchor="middle" x="234" y="-22.8" font-family="System-UI" font-size="14.00" fill="#f2f2f2">Cooperative</text>
<text text-anchor="middle" x="234" y="-7.8" font-family="System-UI" font-size="14.00" fill="#f2f2f2">Governance</text>
</g>
<!-- mesh&#45;&gt;gov -->
<g id="edge3" class="edge">
<title>mesh&#45;&gt;gov</title>
<path fill="none" stroke="#2de56e" d="M234,-73.83C234,-66.55 234,-57.98 234,-49.83"/>
<polygon fill="#2de56e" stroke="#2de56e" points="237.5,-49.93 234,-39.93 230.5,-49.93 237.5,-49.93"/>
</g>
<!-- adhoc&#45;&gt;p2p -->
<g id="edge5" class="edge">
<title>adhoc&#45;&gt;p2p</title>
<path fill="none" stroke="#2de56e" d="M72,-73.83C72,-66.55 72,-57.98 72,-49.83"/>
<polygon fill="#2de56e" stroke="#2de56e" points="75.5,-49.93 72,-39.93 68.5,-49.93 75.5,-49.93"/>
</g>
</g>
</svg>
