<?xml version="1.0" encoding="UTF-8" standalone="no"?>
<!DOCTYPE svg PUBLIC "-//W3C//DTD SVG 1.1//EN"
 "http://www.w3.org/Graphics/SVG/1.1/DTD/svg11.dtd">
<!-- Generated by graphviz version 8.0.4 (20230421.1958)
 -->
<!-- Pages: 1 -->
<svg width="540pt" height="260pt"
 viewBox="0.00 0.00 540.00 260.00" xmlns="http://www.w3.org/2000/svg" xmlns:xlink="http://www.w3.org/1999/xlink">
<g id="graph0" class="graph" transform="scale(1 1) rotate(0) translate(36 224)">
<polygon fill="#111101" stroke="none" points="-36,36 -36,-224 504,-224 504,36 -36,36"/>
<!-- p2p -->
<g id="node1" class="node">
<title>p2p</title>
<path fill="#6e2de5" stroke="black" d="M132,-44C132,-44 12,-44 12,-44 6,-44 0,-38 0,-32 0,-32 0,-12 0,-12 0,-6 6,0 12,0 12,0 132,0 132,0 138,0 144,-6 144,-12 144,-12 144,-32 144,-32 144,-38 138,-44 132,-44"/>
<text text-anchor="middle" x="72" y="-26.7" font-family="System-UI" font-size="14.00" fill="#f2f2f2">Peer to Peer</text>
<text text-anchor="middle" x="72" y="-8.7" font-family="System-UI" font-size="14.00" fill="#f2f2f2">Protocols</text>
</g>
<!-- press -->
<g id="node2" class="node">
<title>press</title>
<path fill="#6e2de5" stroke="black" d="M294,-116C294,-116 174,-116 174,-116 168,-116 162,-110 162,-104 162,-104 162,-92 162,-92 162,-86 168,-80 174,-80 174,-80 294,-80 294,-80 300,-80 306,-86 306,-92 306,-92 306,-104 306,-104 306,-110 300,-116 294,-116"/>
<text text-anchor="middle" x="234" y="-93.7" font-family="System-UI" font-size="14.00" fill="#f2f2f2">Distributed Press</text>
</g>
<!-- press&#45;&gt;p2p -->
<g id="edge1" class="edge">
<title>press&#45;&gt;p2p</title>
<path fill="none" stroke="#2de56e" d="M196.02,-79.65C176.07,-70.54 151.21,-59.18 129,-49.04"/>
<polygon fill="#2de56e" stroke="#2de56e" points="130.56,-45.45 120.01,-44.47 127.65,-51.81 130.56,-45.45"/>
</g>
<!-- web -->
<g id="node3" class="node">
<title>web</title>
<path fill="#6e2de5" stroke="black" d="M294,-40C294,-40 174,-40 174,-40 168,-40 162,-34 162,-28 162,-28 162,-16 162,-16 162,-10 168,-4 174,-4 174,-4 294,-4 294,-4 300,-4 306,-10 306,-16 306,-16 306,-28 306,-28 306,-34 300,-40 294,-40"/>
<text text-anchor="middle" x="234" y="-17.7" font-family="System-UI" font-size="14.00" fill="#f2f2f2">The Web</text>
</g>
<!-- press&#45;&gt;web -->
<g id="edge2" class="edge">
<title>press&#45;&gt;web</title>
<path fill="none" stroke="#2de56e" d="M234,-79.84C234,-71.31 234,-60.78 234,-51.11"/>
<polygon fill="#2de56e" stroke="#2de56e" points="237.5,-51.33 234,-41.33 230.5,-51.33 237.5,-51.33"/>
</g>
<!-- dns -->
<g id="node6" class="node">
<title>dns</title>
<path fill="#6e2de5" stroke="black" d="M456,-40C456,-40 336,-40 336,-40 330,-40 324,-34 324,-28 324,-28 324,-16 324,-16 324,-10 330,-4 336,-4 336,-4 456,-4 456,-4 462,-4 468,-10 468,-16 468,-16 468,-28 468,-28 468,-34 462,-40 456,-40"/>
<text text-anchor="middle" x="396" y="-17.7" font-family="System-UI" font-size="14.00" fill="#f2f2f2">Local DNS</text>
</g>
<!-- press&#45;&gt;dns -->
<g id="edge5" class="edge">
<title>press&#45;&gt;dns</title>
<path fill="none" stroke="#2de56e" d="M271.98,-79.65C294.67,-69.29 323.7,-56.03 347.96,-44.94"/>
<polygon fill="#2de56e" stroke="#2de56e" points="349.05,-47.84 356.69,-40.5 346.14,-41.47 349.05,-47.84"/>
</g>
<!-- static -->
<g id="node4" class="node">
<title>static</title>
<path fill="#6e2de5" stroke="black" d="M213,-188C213,-188 93,-188 93,-188 87,-188 81,-182 81,-176 81,-176 81,-164 81,-164 81,-158 87,-152 93,-152 93,-152 213,-152 213,-152 219,-152 225,-158 225,-164 225,-164 225,-176 225,-176 225,-182 219,-188 213,-188"/>
<text text-anchor="middle" x="153" y="-165.7" font-family="System-UI" font-size="14.00" fill="#f2f2f2">Static Websites</text>
</g>
<!-- static&#45;&gt;press -->
<g id="edge3" class="edge">
<title>static&#45;&gt;press</title>
<path fill="none" stroke="#2de56e" d="M173.02,-151.7C182.86,-143.2 194.87,-132.81 205.63,-123.51"/>
<polygon fill="#2de56e" stroke="#2de56e" points="207.65,-125.53 212.93,-116.35 203.07,-120.24 207.65,-125.53"/>
</g>
<!-- sutty -->
<g id="node5" class="node">
<title>sutty</title>
<path fill="#6e2de5" stroke="black" d="M375,-188C375,-188 255,-188 255,-188 249,-188 243,-182 243,-176 243,-176 243,-164 243,-164 243,-158 249,-152 255,-152 255,-152 375,-152 375,-152 381,-152 387,-158 387,-164 387,-164 387,-176 387,-176 387,-182 381,-188 375,-188"/>
<text text-anchor="middle" x="315" y="-165.7" font-family="System-UI" font-size="14.00" fill="#f2f2f2">Sutty CMS</text>
</g>
<!-- sutty&#45;&gt;press -->
<g id="edge4" class="edge">
<title>sutty&#45;&gt;press</title>
<path fill="none" stroke="#2de56e" d="M294.98,-151.7C285.14,-143.2 273.13,-132.81 262.37,-123.51"/>
<polygon fill="#2de56e" stroke="#2de56e" points="264.93,-120.24 255.07,-116.35 260.35,-125.53 264.93,-120.24"/>
</g>
</g>
</svg>
