<?xml version="1.0" encoding="UTF-8" standalone="no"?>
<!DOCTYPE svg PUBLIC "-//W3C//DTD SVG 1.1//EN"
 "http://www.w3.org/Graphics/SVG/1.1/DTD/svg11.dtd">
<!-- Generated by graphviz version 7.1.0 (0)
 -->
<!-- Pages: 1 -->
<svg width="576pt" height="194pt"
 viewBox="0.00 0.00 576.00 194.00" xmlns="http://www.w3.org/2000/svg" xmlns:xlink="http://www.w3.org/1999/xlink">
<g id="graph0" class="graph" transform="scale(1 1) rotate(0) translate(36 158)">
<polygon fill="#111111" stroke="none" points="-36,36 -36,-158 540,-158 540,36 -36,36"/>
<!-- p2p -->
<g id="node1" class="node">
<title>p2p</title>
<path fill="#6e2de5" stroke="black" d="M312,-94C312,-94 192,-94 192,-94 186,-94 180,-88 180,-82 180,-82 180,-68 180,-68 180,-62 186,-56 192,-56 192,-56 312,-56 312,-56 318,-56 324,-62 324,-68 324,-68 324,-82 324,-82 324,-88 318,-94 312,-94"/>
<text text-anchor="middle" x="252" y="-78.8" font-family="System-UI" font-size="14.00" fill="#f2f2f2">Peer to Peer</text>
<text text-anchor="middle" x="252" y="-63.8" font-family="System-UI" font-size="14.00" fill="#f2f2f2">Protocols</text>
</g>
<!-- agregore -->
<g id="node2" class="node">
<title>agregore</title>
<path fill="#6e2de5" stroke="#2de56e" d="M132,-94C132,-94 12,-94 12,-94 6,-94 0,-88 0,-82 0,-82 0,-68 0,-68 0,-62 6,-56 12,-56 12,-56 132,-56 132,-56 138,-56 144,-62 144,-68 144,-68 144,-82 144,-82 144,-88 138,-94 132,-94"/>
<text text-anchor="middle" x="72" y="-78.8" font-family="System-UI" font-size="14.00" fill="#f2f2f2">Agregore</text>
<text text-anchor="middle" x="72" y="-63.8" font-family="System-UI" font-size="14.00" fill="#f2f2f2">Browser</text>
</g>
<!-- p2p&#45;&gt;agregore -->
<g id="edge1" class="edge">
<title>p2p&#45;&gt;agregore</title>
<path fill="none" stroke="#2de56e" d="M179.63,-68.37C171.74,-68.26 163.66,-68.23 155.64,-68.27"/>
<polygon fill="#2de56e" stroke="#2de56e" points="155.87,-64.76 145.9,-68.35 155.94,-71.76 155.87,-64.76"/>
</g>
<!-- db -->
<g id="node5" class="node">
<title>db</title>
<path fill="#6e2de5" stroke="black" d="M132,-38C132,-38 12,-38 12,-38 6,-38 0,-32 0,-26 0,-26 0,-12 0,-12 0,-6 6,0 12,0 12,0 132,0 132,0 138,0 144,-6 144,-12 144,-12 144,-26 144,-26 144,-32 138,-38 132,-38"/>
<text text-anchor="middle" x="72" y="-22.8" font-family="System-UI" font-size="14.00" fill="#f2f2f2">Peer To Peer</text>
<text text-anchor="middle" x="72" y="-7.8" font-family="System-UI" font-size="14.00" fill="#f2f2f2">Databases</text>
</g>
<!-- p2p&#45;&gt;db -->
<g id="edge3" class="edge">
<title>p2p&#45;&gt;db</title>
<path fill="none" stroke="#2de56e" d="M189.24,-55.57C175.24,-51.17 160.24,-46.45 145.83,-41.91"/>
<polygon fill="#2de56e" stroke="#2de56e" points="146.98,-38.61 136.39,-38.94 144.88,-45.28 146.98,-38.61"/>
</g>
<!-- agregore&#45;&gt;p2p -->
<g id="edge2" class="edge">
<title>agregore&#45;&gt;p2p</title>
<path fill="none" stroke="#2de56e" d="M144.39,-81.63C152.28,-81.74 160.36,-81.77 168.37,-81.73"/>
<polygon fill="#2de56e" stroke="#2de56e" points="168.15,-85.24 178.11,-81.64 168.08,-78.24 168.15,-85.24"/>
</g>
<!-- mesh -->
<g id="node3" class="node">
<title>mesh</title>
<path fill="#6e2de5" stroke="black" d="M492,-122C492,-122 372,-122 372,-122 366,-122 360,-116 360,-110 360,-110 360,-96 360,-96 360,-90 366,-84 372,-84 372,-84 492,-84 492,-84 498,-84 504,-90 504,-96 504,-96 504,-110 504,-110 504,-116 498,-122 492,-122"/>
<text text-anchor="middle" x="432" y="-106.8" font-family="System-UI" font-size="14.00" fill="#f2f2f2">Community</text>
<text text-anchor="middle" x="432" y="-91.8" font-family="System-UI" font-size="14.00" fill="#f2f2f2">Mesh Networks</text>
</g>
<!-- mesh&#45;&gt;p2p -->
<g id="edge5" class="edge">
<title>mesh&#45;&gt;p2p</title>
<path fill="none" stroke="#2de56e" d="M359.63,-91.77C351.74,-90.53 343.66,-89.26 335.64,-88"/>
<polygon fill="#2de56e" stroke="#2de56e" points="336.31,-84.56 325.88,-86.47 335.22,-91.48 336.31,-84.56"/>
</g>
<!-- archive -->
<g id="node4" class="node">
<title>archive</title>
<path fill="#6e2de5" stroke="black" d="M492,-66C492,-66 372,-66 372,-66 366,-66 360,-60 360,-54 360,-54 360,-40 360,-40 360,-34 366,-28 372,-28 372,-28 492,-28 492,-28 498,-28 504,-34 504,-40 504,-40 504,-54 504,-54 504,-60 498,-66 492,-66"/>
<text text-anchor="middle" x="432" y="-50.8" font-family="System-UI" font-size="14.00" fill="#f2f2f2">Web</text>
<text text-anchor="middle" x="432" y="-35.8" font-family="System-UI" font-size="14.00" fill="#f2f2f2">Archives</text>
</g>
<!-- archive&#45;&gt;p2p -->
<g id="edge4" class="edge">
<title>archive&#45;&gt;p2p</title>
<path fill="none" stroke="#2de56e" d="M359.63,-58.23C351.74,-59.47 343.66,-60.74 335.64,-62"/>
<polygon fill="#2de56e" stroke="#2de56e" points="335.22,-58.52 325.88,-63.53 336.31,-65.44 335.22,-58.52"/>
</g>
</g>
</svg>
