<?xml version="1.0" encoding="UTF-8" standalone="no"?>
<!DOCTYPE svg PUBLIC "-//W3C//DTD SVG 1.1//EN"
 "http://www.w3.org/Graphics/SVG/1.1/DTD/svg11.dtd">
<!-- Generated by graphviz version 12.2.1 (0)
 -->
<!-- Pages: 1 -->
<svg width="576pt" height="188pt"
 viewBox="0.00 0.00 576.00 188.00" xmlns="http://www.w3.org/2000/svg" xmlns:xlink="http://www.w3.org/1999/xlink">
<g id="graph0" class="graph" transform="scale(1 1) rotate(0) translate(36 152)">
<polygon fill="#111101" stroke="none" points="-36,36 -36,-152 540,-152 540,36 -36,36"/>
<text text-anchor="middle" x="252" y="-98.7" font-family="system-ui" font-size="14.00" fill="#f2f2f2">AT Protocol</text>
<!-- client -->
<g id="node1" class="node">
<title>client</title>
<path fill="#6e2de5" stroke="black" d="M132,-90C132,-90 12,-90 12,-90 6,-90 0,-84 0,-78 0,-78 0,-66 0,-66 0,-60 6,-54 12,-54 12,-54 132,-54 132,-54 138,-54 144,-60 144,-66 144,-66 144,-78 144,-78 144,-84 138,-90 132,-90"/>
<text text-anchor="middle" x="72" y="-67.7" font-family="System-UI" font-size="14.00" fill="#f2f2f2">Publisher</text>
</g>
<!-- PDS -->
<g id="node3" class="node">
<title>PDS</title>
<path fill="#6e2de5" stroke="black" d="M312,-90C312,-90 192,-90 192,-90 186,-90 180,-84 180,-78 180,-78 180,-66 180,-66 180,-60 186,-54 192,-54 192,-54 312,-54 312,-54 318,-54 324,-60 324,-66 324,-66 324,-78 324,-78 324,-84 318,-90 312,-90"/>
<text text-anchor="middle" x="252" y="-67.7" font-family="System-UI" font-size="14.00" fill="#f2f2f2">PDS</text>
</g>
<!-- client&#45;&gt;PDS -->
<g id="edge1" class="edge">
<title>client&#45;&gt;PDS</title>
<path fill="none" stroke="#2de56e" d="M144.37,-72C152.26,-72 160.34,-72 168.36,-72"/>
<polygon fill="#2de56e" stroke="#2de56e" points="168.1,-75.5 178.1,-72 168.1,-68.5 168.1,-75.5"/>
</g>
<!-- client2 -->
<g id="node2" class="node">
<title>client2</title>
<path fill="#6e2de5" stroke="black" d="M132,-36C132,-36 12,-36 12,-36 6,-36 0,-30 0,-24 0,-24 0,-12 0,-12 0,-6 6,0 12,0 12,0 132,0 132,0 138,0 144,-6 144,-12 144,-12 144,-24 144,-24 144,-30 138,-36 132,-36"/>
<text text-anchor="middle" x="72" y="-13.7" font-family="System-UI" font-size="14.00" fill="#f2f2f2">Follower</text>
</g>
<!-- PDS2 -->
<g id="node4" class="node">
<title>PDS2</title>
<path fill="#6e2de5" stroke="black" d="M312,-36C312,-36 192,-36 192,-36 186,-36 180,-30 180,-24 180,-24 180,-12 180,-12 180,-6 186,0 192,0 192,0 312,0 312,0 318,0 324,-6 324,-12 324,-12 324,-24 324,-24 324,-30 318,-36 312,-36"/>
<text text-anchor="middle" x="252" y="-13.7" font-family="System-UI" font-size="14.00" fill="#f2f2f2">PDS</text>
</g>
<!-- client2&#45;&gt;PDS2 -->
<g id="edge5" class="edge">
<title>client2&#45;&gt;PDS2</title>
<path fill="none" stroke="#2de56e" d="M144.37,-18C152.26,-18 160.34,-18 168.36,-18"/>
<polygon fill="#2de56e" stroke="#2de56e" points="168.1,-21.5 178.1,-18 168.1,-14.5 168.1,-21.5"/>
</g>
<!-- Relay -->
<g id="node5" class="node">
<title>Relay</title>
<path fill="#6e2de5" stroke="black" d="M492,-90C492,-90 372,-90 372,-90 366,-90 360,-84 360,-78 360,-78 360,-66 360,-66 360,-60 366,-54 372,-54 372,-54 492,-54 492,-54 498,-54 504,-60 504,-66 504,-66 504,-78 504,-78 504,-84 498,-90 492,-90"/>
<text text-anchor="middle" x="432" y="-67.7" font-family="System-UI" font-size="14.00" fill="#f2f2f2">Relay</text>
</g>
<!-- PDS&#45;&gt;Relay -->
<g id="edge2" class="edge">
<title>PDS&#45;&gt;Relay</title>
<path fill="none" stroke="#2de56e" d="M324.37,-72C332.26,-72 340.34,-72 348.36,-72"/>
<polygon fill="#2de56e" stroke="#2de56e" points="348.1,-75.5 358.1,-72 348.1,-68.5 348.1,-75.5"/>
</g>
<!-- AppView -->
<g id="node6" class="node">
<title>AppView</title>
<path fill="#6e2de5" stroke="black" d="M492,-36C492,-36 372,-36 372,-36 366,-36 360,-30 360,-24 360,-24 360,-12 360,-12 360,-6 366,0 372,0 372,0 492,0 492,0 498,0 504,-6 504,-12 504,-12 504,-24 504,-24 504,-30 498,-36 492,-36"/>
<text text-anchor="middle" x="432" y="-13.7" font-family="System-UI" font-size="14.00" fill="#f2f2f2">AppView</text>
</g>
<!-- PDS2&#45;&gt;AppView -->
<g id="edge4" class="edge">
<title>PDS2&#45;&gt;AppView</title>
<path fill="none" stroke="#2de56e" d="M324.37,-18C332.26,-18 340.34,-18 348.36,-18"/>
<polygon fill="#2de56e" stroke="#2de56e" points="348.1,-21.5 358.1,-18 348.1,-14.5 348.1,-21.5"/>
</g>
<!-- Relay&#45;&gt;AppView -->
<g id="edge3" class="edge">
<title>Relay&#45;&gt;AppView</title>
<path fill="none" stroke="#2de56e" d="M432,-53.51C432,-51.52 432,-49.53 432,-47.54"/>
<polygon fill="#2de56e" stroke="#2de56e" points="435.5,-47.65 432,-37.65 428.5,-47.65 435.5,-47.65"/>
</g>
</g>
</svg>
